<svg width="189" height="129" viewBox="0 0 189 129" fill="none" xmlns="http://www.w3.org/2000/svg">
<path d="M24.3755 74.515C23.1231 75.0436 22.809 76.0474 23.4332 77.5266C26.0213 83.6591 27.648 87.2273 28.3133 88.2312C28.71 88.8396 29.0685 89.2671 29.3887 89.5135L30.2368 90.1668L24.4876 92.5931C24.4868 91.6268 24.3972 90.8569 24.2188 90.2835C24.0512 89.7055 23.8569 89.0943 23.6358 88.4499C23.1845 87.1394 22.5055 85.4099 21.5988 83.2614C20.5007 80.6594 19.4551 78.3023 18.462 76.1902L16.4043 71.8118C15.8873 70.7072 15.4597 69.9654 15.1218 69.5865C14.5881 68.985 13.9329 68.5174 13.1561 68.1838L21.7232 64.5683C24.336 63.4657 26.3348 62.9274 27.7196 62.9536C29.1782 62.974 30.1832 63.6374 30.7345 64.9438C31.2175 66.0882 31.2444 67.3425 30.8152 68.7065C30.4081 69.9722 29.6729 71.1537 28.6097 72.2511C30.5213 76.3287 33.5014 79.7582 37.5498 82.5397C39.2942 83.7496 40.9053 84.5834 42.3831 85.0409L36.3099 87.6039C34.6413 86.6036 32.4271 84.0847 29.6674 80.047C28.7181 78.6415 27.9807 77.4518 27.4553 76.4779C26.9406 75.4994 26.6076 74.9213 26.4562 74.7435C26.3111 74.5504 26.1464 74.4164 25.9622 74.3415C25.5846 74.1701 25.0557 74.228 24.3755 74.515ZM26.8838 70.0603C27.0494 69.6089 27.1142 69.1745 27.078 68.7573C27.0527 68.3356 26.9694 67.9573 26.8281 67.6226C26.6823 67.2771 26.4902 66.9575 26.2518 66.6639C26.0196 66.3548 25.7139 66.1277 25.3346 65.9825C24.4947 65.6501 23.3352 65.796 21.8561 66.4202C21.3054 66.6526 20.8665 66.8632 20.5392 67.0522C20.2228 67.2367 20.0084 67.4671 19.896 67.7434C19.698 68.2086 19.8793 69.1051 20.4397 70.4331C20.9318 71.5992 21.3703 72.2918 21.7554 72.5109C22.4395 72.8963 23.2296 72.8999 24.1258 72.5217C25.0219 72.1435 25.6642 71.7516 26.0527 71.346C26.4474 70.925 26.7244 70.4965 26.8838 70.0603ZM38.9709 57.2894C38.9952 58.4621 39.1891 59.5696 39.5526 60.6118C39.9116 61.6432 40.2275 62.5275 40.5004 63.2645C40.7733 64.0016 41.063 64.7633 41.3694 65.5498C42.1025 67.3773 42.7835 69.036 43.4123 70.526C45.9912 76.6369 47.799 80.2877 48.8357 81.4783C49.0115 81.6839 49.2089 81.8804 49.4279 82.0678L43.8406 84.4258C43.8655 83.5503 43.785 82.8021 43.5992 82.1809C43.4134 81.5597 43.1743 80.8275 42.882 79.9842C42.2962 78.2344 41.5363 76.2529 40.6022 74.0396C39.6681 71.8262 39.0248 70.317 38.6723 69.5118C38.3152 68.6958 37.9619 67.9037 37.6122 67.1354C35.9373 63.3777 34.6945 61.0657 33.8838 60.1995L33.3837 59.6474L38.9709 57.2894ZM47.1818 53.8243C47.2489 54.4956 47.394 55.0957 47.6173 55.6248C47.9955 56.5209 48.6988 57.7504 49.7273 59.3134C53.8375 65.3758 56.2171 68.8744 56.8659 69.8089C58.2124 71.7337 59.0299 72.9023 59.3184 73.3148C59.6132 73.7119 59.8904 74.0973 60.1499 74.4712C61.1511 71.2376 61.1647 67.3969 60.1907 62.9491C59.8336 61.3191 59.3725 59.8347 58.8075 58.4959C58.2425 57.1571 57.7781 56.132 57.4142 55.4206C57.0504 54.7092 56.6762 54.0786 56.2914 53.5286C55.522 52.4287 54.6857 51.5924 53.7825 51.0196L59.4346 48.6343C59.4813 49.3778 59.6359 50.0757 59.8985 50.7281C60.1611 51.3804 60.5564 52.3774 61.0844 53.7191C61.6079 55.05 62.1035 56.6915 62.5713 58.6437C63.039 60.5959 63.3491 62.3857 63.5017 64.013C63.6542 65.6404 63.6853 67.1154 63.5948 68.4383C63.5044 69.7611 63.357 70.949 63.1527 72.0019C62.9483 73.0549 62.7208 73.9776 62.4702 74.7702L61.8495 76.8257L56.748 78.9786C56.7369 78.5 56.6492 78.0663 56.4852 77.6776C56.2164 77.0406 55.7359 76.1432 55.0437 74.9852C47.9941 63.4346 43.4894 57.176 41.5298 56.2096L47.1818 53.8243ZM82.5119 61.0463C82.972 61.3228 83.3616 61.8389 83.6805 62.5947C83.9995 63.3504 84.2222 63.9687 84.3488 64.4495C84.4708 64.9195 84.5391 65.3677 84.5537 65.794C84.5761 66.7513 84.3228 67.3415 83.7937 67.5648L70.6758 73.1008C71.3203 72.3073 71.6909 71.6485 71.7877 71.1243C71.9717 70.1436 71.8153 69.0648 71.3187 67.8879C70.0913 65.0098 68.9855 62.4047 68.0013 60.0726L64.4063 51.554C63.7274 49.9453 62.9816 48.8863 62.1689 48.3771C61.8652 48.2 61.5283 48.0496 61.1581 47.926L73.3368 42.7864C74.1803 42.7357 75.0651 43.4307 75.9911 44.8715C76.249 45.2715 76.4644 45.6766 76.6376 46.0869C76.993 46.929 77.1513 47.6508 77.1126 48.2523L75.4999 46.8723C74.4339 45.9739 73.2737 45.5604 72.0192 45.632C71.3234 45.6712 70.5977 45.8503 69.8419 46.1692C69.0861 46.4882 68.5577 46.743 68.2566 46.9337C67.9509 47.1135 67.7504 47.3317 67.6551 47.5882C67.5066 48.0197 67.6191 48.6782 67.9927 49.5635C68.3618 50.438 68.6408 51.0389 68.8298 51.3662C69.0142 51.6827 69.233 51.9147 69.4861 52.0623C69.9985 52.3421 70.7945 52.2542 71.8742 51.7986L76.9594 49.6525C76.9754 50.3835 76.9084 50.9332 76.7587 51.3017C76.4591 52.0387 75.8667 52.5939 74.9814 52.9676C74.6359 53.1134 74.2907 53.2146 73.9457 53.2711C73.3034 53.3768 72.7609 53.5231 72.3183 53.7099C71.8756 53.8967 71.5268 54.0948 71.2717 54.3042C71.0229 54.4982 70.8539 54.7158 70.7649 54.9569C70.6118 55.3777 70.7015 55.9821 71.0341 56.7703L74.2942 64.4953C75.1508 66.5251 75.7722 67.6811 76.1584 67.9633C76.5446 68.2455 76.9156 68.356 77.2714 68.2949C77.6227 68.223 78.1762 68.0275 78.932 67.7086C79.6877 67.3897 80.3277 66.9924 80.852 66.5167C81.3763 66.0411 81.7616 65.5223 82.0078 64.9605C82.2649 64.3941 82.4167 63.7894 82.4634 63.1465C82.5054 62.4928 82.5216 61.7927 82.5119 61.0463ZM88.5402 47.4363C87.2878 47.9648 86.9737 48.9687 87.5979 50.4478C90.1859 56.5803 91.8126 60.1485 92.478 61.1524C92.8747 61.7609 93.2331 62.1884 93.5534 62.4348L94.4015 63.0881L88.6522 65.5144C88.6514 64.548 88.5618 63.7782 88.3835 63.2047C88.2159 62.6268 88.0215 62.0156 87.8004 61.3711C87.3491 60.0607 86.6701 58.3312 85.7634 56.1826C84.6653 53.5806 83.6197 51.2236 82.6266 49.1115L80.569 44.7331C80.0519 43.6284 79.6244 42.8867 79.2864 42.5078C78.7527 41.9063 78.0975 41.4387 77.3207 41.1051L85.8879 37.4896C88.5007 36.3869 90.4995 35.8487 91.8842 35.8748C93.3429 35.8952 94.3478 36.5586 94.8992 37.865C95.3822 39.0095 95.409 40.2637 94.9799 41.6278C94.5728 42.8934 93.8376 44.075 92.7744 45.1724C94.686 49.25 97.666 52.6795 101.714 55.461C103.459 56.6709 105.07 57.5046 106.548 57.9621L100.475 60.5251C98.806 59.5249 96.5918 57.0059 93.8321 52.9683C92.8828 51.5627 92.1454 50.373 91.6199 49.3991C91.1052 48.4207 90.7722 47.8426 90.6209 47.6648C90.4758 47.4716 90.3111 47.3376 90.1269 47.2627C89.7493 47.0914 89.2204 47.1492 88.5402 47.4363ZM91.0485 42.9816C91.2141 42.5301 91.2788 42.0958 91.2427 41.6786C91.2173 41.2568 91.134 40.8786 90.9928 40.5439C90.847 40.1984 90.6548 39.8788 90.4164 39.5851C90.1842 39.2761 89.8785 39.0489 89.4992 38.9037C88.6594 38.5713 87.4999 38.7172 86.0207 39.3414C85.4701 39.5738 85.0312 39.7845 84.7039 39.9735C84.3874 40.1579 84.173 40.3883 84.0607 40.6647C83.8627 41.1298 84.0439 42.0264 84.6043 43.3544C85.0964 44.5204 85.535 45.213 85.92 45.4321C86.6042 45.8175 87.3943 45.8211 88.2904 45.443C89.1865 45.0648 89.8289 44.6729 90.2173 44.2673C90.6121 43.8463 90.8891 43.4177 91.0485 42.9816Z" fill="white"/>
<path d="M73.7272 82.9427C73.2039 82.4258 72.7622 81.7409 72.4022 80.888C72.0423 80.0351 71.7808 79.325 71.6177 78.7578C71.4501 78.1799 71.3269 77.6468 71.2481 77.1585C71.088 76.0559 71.1969 75.4248 71.5748 75.2654L85.8426 69.2441C86.4688 68.9798 87.2817 69.7306 88.2814 71.4965C88.5541 71.992 88.8066 72.515 89.039 73.0656C89.5857 74.3612 89.8532 75.3868 89.8413 76.1423C87.6962 73.6514 85.7132 72.3132 83.8924 72.1277C83.4756 72.0746 83.1053 72.1164 82.7814 72.2531C82.4575 72.3898 82.2403 72.5832 82.1296 72.8334C82.0144 73.0728 81.9749 73.4011 82.0111 73.8183C82.0901 74.5482 82.321 75.3665 82.7037 76.2735L85.2667 82.3466L87.3743 87.2954L89.3563 91.992C89.8029 93.0501 90.2682 93.7759 90.7522 94.1694C91.2425 94.5476 91.6827 94.807 92.0728 94.9476C92.4737 95.0837 92.9163 95.1831 93.4006 95.2458L85.125 98.7383C85.6335 97.7733 85.9092 97.04 85.952 96.5386C86.0371 95.6251 85.8655 94.6608 85.4372 93.646L79.2792 79.0542C78.5638 77.3592 78.0388 76.296 77.7042 75.8649C77.3651 75.4229 77.0696 75.1597 76.8177 75.0752C76.5612 74.9799 76.271 75.0006 75.9471 75.1373C75.6232 75.274 75.335 75.5101 75.0823 75.8457C74.825 76.1705 74.6005 76.5578 74.4088 77.0076C74.2232 77.442 74.0713 77.9259 73.9529 78.4592C73.8408 78.9771 73.7571 79.5022 73.7018 80.0343C73.5975 81.0831 73.606 82.0526 73.7272 82.9427ZM108.077 87.5257C110.15 86.6509 110.423 83.5595 108.895 78.2514C108.38 76.459 107.635 74.4075 106.66 72.097C104.245 66.3748 101.586 64.1265 98.6814 65.3522C95.7771 66.5779 95.5324 70.0518 97.9473 75.7741C100.795 82.522 103.462 86.4145 105.947 87.4516C106.719 87.7744 107.429 87.7991 108.077 87.5257ZM108.728 89.1589C105.856 90.3709 103.122 89.9349 100.525 87.8508C98.0237 85.8411 95.75 82.4124 93.7042 77.5647C91.5763 72.5227 91.7861 68.6946 94.3334 66.0805C95.2325 65.1669 96.454 64.3843 97.9979 63.7327C102.425 61.8646 105.958 62.6882 108.599 66.2035C109.456 67.3301 110.304 68.8866 111.142 70.8732C111.981 72.8598 112.626 74.8707 113.078 76.9059C113.525 78.9303 113.671 80.7515 113.514 82.3694C113.195 85.6837 111.6 87.9469 108.728 89.1589ZM128.096 79.0776C130.168 78.2027 130.441 75.1113 128.913 69.8033C128.399 68.0109 127.654 65.9594 126.679 63.6489C124.264 57.9267 121.604 55.6784 118.7 56.9041C115.795 58.1297 115.551 61.6037 117.966 67.3259C120.813 74.0739 123.48 77.9664 125.966 79.0034C126.738 79.3262 127.448 79.351 128.096 79.0776ZM128.747 80.7107C125.875 81.9227 123.14 81.4867 120.544 79.4027C118.042 77.393 115.768 73.9643 113.723 69.1166C111.595 64.0746 111.804 60.2465 114.352 57.6324C115.251 56.7187 116.472 55.9361 118.016 55.2846C122.443 53.4164 125.977 54.2401 128.618 57.7554C129.475 58.8819 130.322 60.4385 131.161 62.4251C131.999 64.4117 132.644 66.4226 133.096 68.4578C133.544 70.4822 133.689 72.3034 133.532 73.9213C133.214 77.2356 131.619 79.4987 128.747 80.7107ZM132.484 58.1462C131.961 57.6293 131.519 56.9444 131.159 56.0915C130.799 55.2385 130.538 54.5285 130.375 53.9613C130.207 53.3833 130.084 52.8502 130.005 52.362C129.845 51.2594 129.954 50.6283 130.332 50.4688L144.599 44.4475C145.226 44.1833 146.039 44.9341 147.038 46.7C147.311 47.1954 147.563 47.7185 147.796 48.2691C148.343 49.5647 148.61 50.5903 148.598 51.3457C146.453 48.8549 144.47 47.5167 142.649 47.3311C142.232 47.2781 141.862 47.3199 141.538 47.4566C141.214 47.5932 140.997 47.7867 140.886 48.0369C140.771 48.2763 140.732 48.6046 140.768 49.0218C140.847 49.7516 141.078 50.57 141.461 51.4769L144.024 57.5501L146.131 62.4989L148.113 67.1955C148.56 68.2535 149.025 68.9793 149.509 69.3729C149.999 69.751 150.44 70.0105 150.83 70.1511C151.23 70.2872 151.673 70.3866 152.157 70.4493L143.882 73.9418C144.39 72.9767 144.666 72.2435 144.709 71.7421C144.794 70.8285 144.622 69.8643 144.194 68.8494L138.036 54.2577C137.321 52.5626 136.796 51.4995 136.461 51.0683C136.122 50.6264 135.826 50.3631 135.574 50.2787C135.318 50.1834 135.028 50.2041 134.704 50.3408C134.38 50.4774 134.092 50.7136 133.839 51.0492C133.582 51.374 133.357 51.7613 133.166 52.2111C132.98 52.6455 132.828 53.1294 132.71 53.6627C132.598 54.1806 132.514 54.7056 132.459 55.2377C132.354 56.2866 132.363 57.2561 132.484 58.1462ZM166.359 53.1038L164.47 48.6732C164.215 48.0686 163.944 47.6994 163.659 47.5654C163.134 47.3163 162.391 47.3945 161.43 47.8L158.872 48.8799C157.533 49.4449 156.958 50.1326 157.147 50.9431C157.206 51.1727 157.288 51.4116 157.393 51.66L159.427 56.5253C161.195 60.7144 162.518 63.2469 163.396 64.1227C163.742 64.4601 164.201 64.7942 164.773 65.1252L158.7 67.6881C158.699 66.7218 158.61 65.9519 158.431 65.3785C158.264 64.8005 158.042 64.093 157.765 63.2559C157.168 61.5107 156.41 59.5476 155.489 57.3667C154.569 55.1858 153.93 53.6873 153.573 52.8713C153.211 52.0445 152.859 51.2393 152.515 50.4557C151.059 47.2162 150.13 45.2999 149.727 44.7068C149.319 44.1029 149.024 43.7058 148.842 43.5155L148.243 42.9098L154.316 40.3468C153.904 41.5386 153.964 42.8869 154.497 44.3917C154.652 44.848 154.831 45.3191 155.036 45.8049C155.241 46.2908 155.446 46.6558 155.651 46.9001C155.862 47.129 156.103 47.2627 156.374 47.3011C156.747 47.3724 157.474 47.1803 158.553 46.7246L160.092 46.0753C161.193 45.6106 161.839 45.2426 162.03 44.9713C162.343 44.5083 162.302 43.8072 161.906 42.8678C160.935 40.5681 159.798 39.14 158.495 38.5834L164.568 36.0205C164.545 36.8697 164.623 37.6126 164.802 38.2491C164.993 38.8811 165.19 39.4846 165.395 40.0597C165.595 40.624 165.834 41.2801 166.111 42.0279C166.388 42.7758 166.683 43.5483 166.994 44.3456C167.736 46.1947 168.421 47.8642 169.05 49.3542C171.606 55.4111 173.398 59.0241 174.426 60.1931C174.597 60.3879 174.797 60.5898 175.025 60.7988L168.952 63.3618C169.186 62.4106 169.254 61.6508 169.154 61.0825C169.049 60.5033 168.879 59.8438 168.643 59.1039C168.205 57.6735 167.443 55.6734 166.359 53.1038Z" fill="white"/>
<path d="M175.042 46.0087L175.413 46.9183L175.582 46.9596C177.282 47.111 180.477 46.6218 182.179 45.9271C184.036 45.1688 184.42 44.3886 185.116 42.9722C185.214 42.771 185.316 42.5656 185.428 42.3459C185.194 42.2674 184.978 42.191 184.766 42.1173C183.278 41.5924 182.458 41.3036 180.601 42.0619C178.993 42.7184 176.271 44.5403 175.131 45.8648L175.042 46.0087Z" fill="white"/>
<path d="M175.139 45.0019L176.781 42.3414C177.131 41.776 177.189 41.0704 176.937 40.455C176.845 40.2282 176.714 40.0216 176.549 39.84C175.786 39.0016 174.575 38.7764 173.573 39.2556L173.822 39.4721C174.333 39.9167 174.738 40.4831 174.995 41.1104C175.255 41.7479 175.361 42.4468 175.301 43.1326L175.139 45.0019Z" fill="white"/>
<path d="M180.84 50.349C180.832 50.1036 180.779 49.8642 180.687 49.6381C180.436 49.0228 179.901 48.5602 179.256 48.4L176.22 47.649L177.645 48.8708C178.167 49.319 178.581 49.893 178.841 50.5298C179.097 51.1571 179.204 51.8452 179.15 52.5203L179.124 52.8495C180.174 52.49 180.882 51.4813 180.84 50.349Z" fill="white"/>
<path d="M13.9541 82.6839L13.5828 81.7743L13.4142 81.733C11.7139 81.5816 8.51906 82.0708 6.81721 82.7656C4.95996 83.5238 4.57632 84.304 3.88059 85.7205C3.78228 85.9216 3.68019 86.127 3.56819 86.3467C3.80193 86.4252 4.01816 86.5016 4.2296 86.5754C5.71785 87.1002 6.53798 87.389 8.39518 86.6308C10.0034 85.9742 12.7255 84.1524 13.8647 82.8278L13.9541 82.6839Z" fill="white"/>
<path d="M13.857 83.6907L12.2147 86.3513C11.8655 86.9167 11.8075 87.6222 12.0587 88.2376C12.1513 88.4644 12.2819 88.671 12.4467 88.8526C13.2099 89.6911 14.4214 89.9163 15.423 89.437L15.1737 89.2206C14.6628 88.776 14.2576 88.2095 14.0015 87.5823C13.7412 86.9447 13.6354 86.2459 13.695 85.56L13.857 83.6907Z" fill="white"/>
<path d="M8.1556 78.3436C8.16418 78.589 8.21662 78.8285 8.30889 79.0545C8.56012 79.6699 9.09498 80.1324 9.7405 80.2927L12.7756 81.0436L11.3516 79.8218C10.8291 79.3736 10.4153 78.7996 10.1553 78.1628C9.8992 77.5356 9.79219 76.8474 9.84594 76.1723L9.87255 75.8431C8.8221 76.2026 8.11441 77.2113 8.1556 78.3436Z" fill="white"/>
</svg>
