<svg width="174" height="130" viewBox="0 0 174 130" fill="none" xmlns="http://www.w3.org/2000/svg">
<g filter="url(#filter0_d_828_22)">
<path d="M16.7872 75.3918C15.5389 75.9301 15.2327 76.9364 15.8685 78.4106C18.5044 84.5227 20.159 88.078 20.8321 89.0767C21.2336 89.682 21.5954 90.1067 21.9175 90.3506L22.7707 90.9973L17.0406 93.4684C17.0323 92.5021 16.9367 91.733 16.7538 91.161C16.5817 90.5843 16.3826 89.9747 16.1564 89.332C15.6949 88.0251 15.0024 86.301 14.0789 84.1596C12.9605 81.5662 11.8965 79.2174 10.8869 77.1132L8.79507 72.751C8.26939 71.6504 7.83609 70.912 7.49517 70.5358C6.95679 69.9385 6.29793 69.476 5.51857 69.1485L14.0572 65.4661C16.6613 64.3431 18.6558 63.7892 20.0407 63.8045C21.4995 63.8135 22.5096 64.469 23.0711 65.7711C23.563 66.9117 23.5997 68.1657 23.1812 69.5331C22.784 70.8019 22.0581 71.9892 21.0035 73.0948C22.947 77.1573 25.9537 80.5635 30.0238 83.3132C31.7777 84.5094 33.3952 85.3305 34.8765 85.7765L28.8236 88.3869C27.1472 87.3997 24.9134 84.8982 22.1222 80.8822C21.1619 79.4841 20.4153 78.3002 19.8822 77.3305C19.3599 76.3561 19.0223 75.7806 18.8696 75.604C18.723 75.412 18.5573 75.2793 18.3725 75.2058C17.9935 75.0374 17.4651 75.0994 16.7872 75.3918ZM19.2606 70.9176C19.4226 70.4649 19.484 70.03 19.4446 69.6131C19.4159 69.1916 19.3296 68.814 19.1858 68.4804C19.0373 68.1361 18.8427 67.818 18.602 67.5262C18.3674 67.2189 18.0599 66.9942 17.6795 66.852C16.8371 66.5261 15.6787 66.6811 14.2045 67.3169C13.6557 67.5536 13.2184 67.7677 12.8926 67.9592C12.5776 68.1461 12.365 68.3782 12.2549 68.6554C12.0605 69.1221 12.2487 70.0172 12.8195 71.3408C13.3207 72.5029 13.7647 73.1921 14.1514 73.4082C14.8386 73.7882 15.6287 73.7856 16.5218 73.4005C17.415 73.0153 18.0542 72.6184 18.4395 72.2097C18.8309 71.7857 19.1046 71.355 19.2606 70.9176ZM31.2474 58.0526C31.2809 59.225 31.4834 60.3309 31.8551 61.3703C32.2221 62.3989 32.5449 63.2806 32.8236 64.0155C33.1022 64.7504 33.3979 65.5099 33.7105 66.2939C34.4578 68.1156 35.1517 69.769 35.7921 71.254C38.4188 77.3445 40.2551 80.981 41.301 82.1635C41.4785 82.3677 41.6774 82.5627 41.8979 82.7484L36.3292 85.15C36.3472 84.2744 36.2609 83.5267 36.0702 82.9071C35.8795 82.2874 35.6347 81.557 35.3359 80.716C34.7364 78.9709 33.961 76.9954 33.0096 74.7894C32.0583 72.5835 31.4032 71.0793 31.0444 70.2769C30.681 69.4637 30.3214 68.6744 29.9657 67.9089C28.2615 64.1644 27.0007 61.8622 26.1832 61.0023L25.6788 60.4541L31.2474 58.0526ZM39.431 54.5233C39.5033 55.194 39.6531 55.793 39.8805 56.3203C40.2657 57.2135 40.9786 58.4375 42.0193 59.9923C46.1768 66.0225 48.5836 69.5023 49.2397 70.4317C50.6013 72.3459 51.4279 73.5081 51.7197 73.9183C52.0175 74.313 52.2977 74.6963 52.5601 75.0681C53.536 71.8268 53.5196 67.9861 52.5108 63.5461C52.1409 61.9189 51.6682 60.4382 51.0928 59.1038C50.5173 57.7695 50.0449 56.7481 49.6756 56.0395C49.3062 55.331 48.927 54.7033 48.538 54.1564C47.76 53.0626 46.9172 52.2328 46.0096 51.6671L51.6428 49.2376C51.6953 49.9807 51.8553 50.6774 52.123 51.3277C52.3907 51.978 52.7938 52.9719 53.3323 54.3094C53.8662 55.6361 54.3746 57.2737 54.8576 59.2222C55.3406 61.1707 55.6647 62.958 55.83 64.5841C55.9952 66.2102 56.0378 67.685 55.9578 69.0085C55.8777 70.332 55.7396 71.521 55.5435 72.5755C55.3474 73.63 55.1271 74.5545 54.8827 75.349L54.2781 77.4093L49.1936 79.602C49.1787 79.1235 49.0877 78.6905 48.9206 78.3031C48.6468 77.6683 48.1593 76.7746 47.4581 75.6221C40.3183 64.1269 35.7649 57.9038 33.7977 56.9527L39.431 54.5233ZM74.8165 61.4688C75.2787 61.7417 75.6723 62.2547 75.9971 63.008C76.322 63.7612 76.5496 64.3777 76.6799 64.8575C76.8056 65.3266 76.8774 65.7742 76.8953 66.2004C76.9252 67.1574 76.6765 67.7496 76.1492 67.977L63.0749 73.6155C63.7133 72.817 64.0787 72.1552 64.1714 71.6303C64.3477 70.6482 64.1829 69.5707 63.6771 68.3977C62.4272 65.5293 61.3011 62.9329 60.2987 60.6086L56.6372 52.1184C55.9457 50.515 55.1917 49.4619 54.375 48.9591C54.0699 48.7843 53.7318 48.6366 53.3607 48.5159L65.4988 43.2812C66.3419 43.2239 67.2321 43.912 68.1694 45.3455C68.4303 45.7434 68.649 46.1469 68.8253 46.5558C69.1873 47.3951 69.3513 48.1156 69.3172 48.7174L67.6938 47.35C66.6208 46.46 65.4574 46.0556 64.2035 46.137C63.5081 46.1816 62.7837 46.3664 62.0305 46.6912C61.2772 47.0161 60.7508 47.275 60.4512 47.4681C60.1469 47.6503 59.9482 47.87 59.8549 48.1272C59.7097 48.5599 59.8274 49.2175 60.2079 50.0999C60.5838 50.9715 60.8675 51.5702 61.0591 51.896C61.246 52.211 61.4665 52.4413 61.7208 52.5869C62.2353 52.8627 63.0306 52.7686 64.1067 52.3045L69.175 50.1187C69.1967 50.8496 69.1341 51.3998 68.9872 51.7695C68.6934 52.5087 68.1054 53.0686 67.223 53.4492C66.8786 53.5977 66.5342 53.7016 66.1896 53.7608C65.5482 53.8715 65.0069 54.022 64.5658 54.2123C64.1246 54.4026 63.7773 54.6034 63.5238 54.8148C63.2766 55.0108 63.1093 55.2296 63.0222 55.4714C62.8723 55.8934 62.9668 56.4971 63.3056 57.2827L66.626 64.9819C67.4985 67.005 68.1289 68.156 68.5173 68.4352C68.9057 68.7144 69.2775 68.822 69.6328 68.7581C69.9835 68.6835 70.5355 68.4837 71.2887 68.1589C72.042 67.834 72.6789 67.4317 73.1994 66.952C73.72 66.4723 74.1011 65.9505 74.343 65.3868C74.5956 64.8184 74.7427 64.2126 74.7843 63.5693C74.8213 62.9152 74.832 62.2151 74.8165 61.4688ZM80.7381 47.812C79.4899 48.3503 79.1836 49.3566 79.8194 50.8308C82.4553 56.9429 84.1099 60.4983 84.783 61.4969C85.1845 62.1023 85.5463 62.5269 85.8684 62.7709L86.7216 63.4175L80.9915 65.8887C80.9832 64.9224 80.8876 64.1532 80.7047 63.5812C80.5326 63.0046 80.3335 62.3949 80.1074 61.7522C79.6458 60.4453 78.9533 58.7212 78.0298 56.5798C76.9114 53.9865 75.8474 51.6377 74.8378 49.5334L72.746 45.1712C72.2203 44.0707 71.787 43.3323 71.4461 42.9561C70.9077 42.3587 70.2488 41.8963 69.4695 41.5688L78.0081 37.8864C80.6122 36.7633 82.6067 36.2094 83.9916 36.2248C85.4504 36.2337 86.4605 36.8893 87.022 38.1913C87.514 39.332 87.5507 40.586 87.1321 41.9533C86.735 43.2221 86.0091 44.4094 84.9544 45.5151C86.8979 49.5776 89.9047 52.9837 93.9747 55.7334C95.7286 56.9297 97.3461 57.7508 98.8274 58.1967L92.7745 60.8071C91.0981 59.82 88.8643 57.3184 86.0731 53.3025C85.1128 51.9044 84.3662 50.7205 83.8331 49.7507C83.3108 48.7764 82.9733 48.2009 82.8205 48.0243C82.6739 47.8322 82.5082 47.6995 82.3234 47.6261C81.9444 47.4577 81.416 47.5197 80.7381 47.812ZM83.2115 43.3379C83.3736 42.8851 83.4349 42.4503 83.3955 42.0334C83.3668 41.6118 83.2806 41.2342 83.1367 40.9007C82.9882 40.5563 82.7936 40.2382 82.5529 39.9464C82.3183 39.6392 82.0108 39.4145 81.6304 39.2722C80.788 38.9464 79.6296 39.1014 78.1554 39.7371C77.6066 39.9738 77.1693 40.1879 76.8436 40.3795C76.5285 40.5664 76.3159 40.7984 76.2058 41.0757C76.0114 41.5424 76.1996 42.4375 76.7705 43.761C77.2717 44.9232 77.7156 45.6123 78.1023 45.8284C78.7895 46.2085 79.5796 46.2059 80.4728 45.8207C81.3659 45.4355 82.0051 45.0386 82.3904 44.63C82.7818 44.2059 83.0555 43.7752 83.2115 43.3379Z" fill="white"/>
</g>
<g filter="url(#filter1_d_828_22)">
<path d="M66.2032 83.4333C65.6758 82.9205 65.2287 82.2391 64.8621 81.389C64.4955 80.5389 64.2285 79.8309 64.061 79.2651C63.8889 78.6884 63.7615 78.1563 63.6788 77.6687C63.5101 76.5673 63.6141 75.9354 63.9907 75.773L78.211 69.6403C78.8351 69.3712 79.6539 70.1156 80.6673 71.8736C80.9439 72.3669 81.2005 72.888 81.4372 73.4368C81.9941 74.7281 82.2695 75.7515 82.2635 76.507C80.0991 74.033 78.1057 72.7104 76.2834 72.5391C75.8663 72.4893 75.4963 72.534 75.1735 72.6732C74.8507 72.8124 74.6349 73.0075 74.5262 73.2586C74.4129 73.4989 74.376 73.8275 74.4154 74.2444C74.5001 74.9736 74.7374 75.7901 75.1272 76.694L77.7376 82.7469L79.8839 87.6791L81.9026 92.3601C82.3574 93.4146 82.8283 94.1367 83.3155 94.5265C83.8087 94.9008 84.2509 95.1568 84.6421 95.2944C85.044 95.4273 85.4874 95.5233 85.9722 95.5822L77.7241 99.1393C78.2251 98.1703 78.495 97.4349 78.5339 96.9332C78.6118 96.019 78.4327 95.0561 77.9964 94.0446L71.7245 79.5015C70.9959 77.8121 70.4626 76.7531 70.1247 76.3246C69.7821 75.8853 69.4845 75.6244 69.232 75.5418C68.9748 75.4486 68.6848 75.4715 68.362 75.6107C68.0391 75.75 67.7527 75.9884 67.5027 76.3259C67.248 76.6527 67.0265 77.0417 66.8383 77.493C66.6561 77.9289 66.508 78.414 66.3938 78.9482C66.2857 79.467 66.2061 79.9926 66.155 80.5252C66.0589 81.5748 66.075 82.5442 66.2032 83.4333ZM100.588 87.7475C102.654 86.8565 102.902 83.763 101.333 78.4671C100.804 76.6788 100.043 74.6332 99.0503 72.3304C96.5907 66.6272 93.9136 64.3998 91.019 65.6482C88.1243 66.8965 87.9068 70.3723 90.3664 76.0754C93.2668 82.8009 95.9638 86.6724 98.4574 87.69C99.2321 88.0068 99.9423 88.0259 100.588 87.7475ZM101.252 89.3755C98.3894 90.61 95.6518 90.1953 93.0389 88.1316C90.5216 86.1416 88.2211 82.7308 86.1374 77.8992C83.9702 72.874 84.15 69.0444 86.6768 66.4105C87.5687 65.4898 88.7841 64.6977 90.3229 64.034C94.7348 62.1314 98.2749 62.9273 100.943 66.4219C101.809 67.5417 102.669 69.0916 103.523 71.0715C104.377 73.0515 105.038 75.0573 105.505 77.0889C105.969 79.1098 106.128 80.9298 105.984 82.5489C105.692 85.8655 104.114 88.1411 101.252 89.3755ZM120.54 79.1431C122.606 78.252 122.854 75.1586 121.285 69.8627C120.756 68.0743 119.995 66.0288 119.002 63.726C116.542 58.0228 113.865 55.7954 110.971 57.0437C108.076 58.2921 107.858 61.7678 110.318 67.471C113.218 74.1965 115.915 78.068 118.409 79.0856C119.184 79.4023 119.894 79.4215 120.54 79.1431ZM121.203 80.7711C118.341 82.0055 115.603 81.5909 112.991 79.5272C110.473 77.5372 108.173 74.1264 106.089 69.2948C103.922 64.2696 104.102 60.44 106.628 57.806C107.52 56.8854 108.736 56.0932 110.275 55.4296C114.686 53.5269 118.227 54.3229 120.895 57.8175C121.761 58.9372 122.621 60.4871 123.475 62.4671C124.328 64.4471 124.989 66.4529 125.457 68.4845C125.92 70.5054 126.08 72.3253 125.936 73.9444C125.643 77.2611 124.066 79.5367 121.203 80.7711ZM124.764 58.178C124.237 57.6652 123.79 56.9838 123.423 56.1337C123.057 55.2836 122.79 54.5756 122.622 54.0097C122.45 53.4331 122.323 52.901 122.24 52.4134C122.071 51.312 122.175 50.6801 122.552 50.5177L136.772 44.385C137.396 44.1159 138.215 44.8603 139.228 46.6183C139.505 47.1116 139.762 47.6327 139.998 48.1815C140.555 49.4728 140.831 50.4962 140.825 51.2517C138.66 48.7777 136.667 47.4551 134.844 47.2838C134.427 47.234 134.057 47.2786 133.735 47.4179C133.412 47.5571 133.196 47.7522 133.087 48.0033C132.974 48.2436 132.937 48.5722 132.976 48.9891C133.061 49.7183 133.299 50.5348 133.688 51.4387L136.299 57.4916L138.445 62.4238L140.464 67.1047C140.918 68.1593 141.389 68.8814 141.877 69.2712C142.37 69.6455 142.812 69.9015 143.203 70.0391C143.605 70.172 144.048 70.268 144.533 70.3269L136.285 73.884C136.786 72.915 137.056 72.1796 137.095 71.6779C137.173 70.7637 136.994 69.8008 136.558 68.7893L130.286 54.2462C129.557 52.5568 129.024 51.4978 128.686 51.0693C128.343 50.63 128.046 50.369 127.793 50.2865C127.536 50.1932 127.246 50.2162 126.923 50.3554C126.6 50.4947 126.314 50.733 126.064 51.0706C125.809 51.3974 125.588 51.7864 125.399 52.2377C125.217 52.6736 125.069 53.1586 124.955 53.6928C124.847 54.2117 124.767 54.7373 124.716 55.2698C124.62 56.3195 124.636 57.2889 124.764 58.178ZM158.599 52.8709L156.675 48.4552C156.415 47.8526 156.142 47.4854 155.856 47.3537C155.329 47.1087 154.586 47.1928 153.629 47.6058L151.078 48.7056C149.744 49.2811 149.175 49.9733 149.371 50.7822C149.431 51.0113 149.515 51.2497 149.621 51.4972L151.694 56.3464C153.494 60.5216 154.837 63.0436 155.722 63.9126C156.071 64.2472 156.532 64.5778 157.107 64.9042L151.054 67.5146C151.046 66.5483 150.95 65.7791 150.767 65.2071C150.595 64.6305 150.368 63.9247 150.084 63.0898C149.474 61.3493 148.7 59.3923 147.763 57.2186C146.825 55.0449 146.175 53.5515 145.811 52.7384C145.443 51.9144 145.084 51.112 144.735 50.3311C143.253 47.1031 142.309 45.1941 141.901 44.6042C141.489 44.0035 141.191 43.6087 141.008 43.4198L140.404 42.8188L146.457 40.2084C146.053 41.4034 146.124 42.7511 146.669 44.2517C146.827 44.7068 147.01 45.1765 147.219 45.6607C147.428 46.145 147.636 46.5084 147.843 46.7511C148.056 46.9783 148.297 47.1101 148.568 47.1464C148.942 47.2148 149.667 47.017 150.744 46.5529L152.277 45.8916C153.375 45.4183 154.018 45.0452 154.206 44.7724C154.516 44.307 154.469 43.6062 154.065 42.67C153.077 40.378 151.929 38.9588 150.621 38.4124L156.674 35.802C156.658 36.6514 156.742 37.3937 156.926 38.0288C157.121 38.6592 157.324 39.2612 157.533 39.8347C157.737 40.3974 157.981 41.0516 158.264 41.7972C158.547 42.5429 158.848 43.3131 159.165 44.1079C159.922 45.9512 160.62 47.6153 161.261 49.1003C163.864 55.137 165.684 58.7359 166.721 59.8968C166.893 60.0903 167.095 60.2906 167.324 60.4979L161.272 63.1083C161.499 62.1552 161.56 61.395 161.456 60.8274C161.347 60.2491 161.171 59.5909 160.93 58.8528C160.48 57.4259 159.703 55.4319 158.599 52.8709Z" fill="white"/>
</g>
<defs>
<filter id="filter0_d_828_22" x="1.51172" y="31.4849" width="101.316" height="68.3594" filterUnits="userSpaceOnUse" color-interpolation-filters="sRGB">
<feFlood flood-opacity="0" result="BackgroundImageFix"/>
<feColorMatrix in="SourceAlpha" type="matrix" values="0 0 0 0 0 0 0 0 0 0 0 0 0 0 0 0 0 0 127 0" result="hardAlpha"/>
<feOffset dy="2"/>
<feGaussianBlur stdDeviation="2"/>
<feComposite in2="hardAlpha" operator="out"/>
<feColorMatrix type="matrix" values="0 0 0 0 0 0 0 0 0 0 0 0 0 0 0 0 0 0 0.25 0"/>
<feBlend mode="normal" in2="BackgroundImageFix" result="effect1_dropShadow_828_22"/>
<feBlend mode="normal" in="SourceGraphic" in2="effect1_dropShadow_828_22" result="shape"/>
</filter>
<filter id="filter1_d_828_22" x="58.5442" y="33.4792" width="112.919" height="73.8762" filterUnits="userSpaceOnUse" color-interpolation-filters="sRGB">
<feFlood flood-opacity="0" result="BackgroundImageFix"/>
<feColorMatrix in="SourceAlpha" type="matrix" values="0 0 0 0 0 0 0 0 0 0 0 0 0 0 0 0 0 0 127 0" result="hardAlpha"/>
<feOffset dy="2"/>
<feGaussianBlur stdDeviation="2"/>
<feComposite in2="hardAlpha" operator="out"/>
<feColorMatrix type="matrix" values="0 0 0 0 0 0 0 0 0 0 0 0 0 0 0 0 0 0 0.25 0"/>
<feBlend mode="normal" in2="BackgroundImageFix" result="effect1_dropShadow_828_22"/>
<feBlend mode="normal" in="SourceGraphic" in2="effect1_dropShadow_828_22" result="shape"/>
</filter>
</defs>
</svg>
