<svg width="191" height="129" viewBox="0 0 191 129" fill="none" xmlns="http://www.w3.org/2000/svg">
<g filter="url(#filter0_d_829_62)">
<g filter="url(#filter1_d_829_62)">
<path d="M25.3755 74.515C24.1231 75.0436 23.809 76.0474 24.4332 77.5266C27.0213 83.6591 28.648 87.2273 29.3133 88.2312C29.71 88.8396 30.0685 89.2671 30.3887 89.5135L31.2368 90.1668L25.4876 92.5931C25.4868 91.6268 25.3972 90.8569 25.2188 90.2835C25.0512 89.7055 24.8569 89.0943 24.6358 88.4499C24.1845 87.1394 23.5055 85.4099 22.5988 83.2614C21.5007 80.6594 20.4551 78.3023 19.462 76.1902L17.4043 71.8118C16.8873 70.7072 16.4597 69.9654 16.1218 69.5865C15.5881 68.985 14.9329 68.5174 14.1561 68.1838L22.7232 64.5683C25.336 63.4657 27.3348 62.9274 28.7196 62.9536C30.1782 62.974 31.1832 63.6374 31.7345 64.9438C32.2175 66.0882 32.2444 67.3425 31.8152 68.7065C31.4081 69.9722 30.6729 71.1537 29.6097 72.2511C31.5213 76.3287 34.5014 79.7582 38.5498 82.5397C40.2942 83.7496 41.9053 84.5834 43.3831 85.0409L37.3099 87.6039C35.6413 86.6036 33.4271 84.0847 30.6674 80.047C29.7181 78.6415 28.9807 77.4518 28.4553 76.4779C27.9406 75.4994 27.6076 74.9213 27.4562 74.7435C27.3111 74.5504 27.1464 74.4164 26.9622 74.3415C26.5846 74.1701 26.0557 74.228 25.3755 74.515ZM27.8838 70.0603C28.0494 69.6089 28.1142 69.1745 28.078 68.7573C28.0527 68.3356 27.9694 67.9573 27.8281 67.6226C27.6823 67.2771 27.4902 66.9575 27.2518 66.6639C27.0196 66.3548 26.7139 66.1277 26.3346 65.9825C25.4947 65.6501 24.3352 65.796 22.8561 66.4202C22.3054 66.6526 21.8665 66.8632 21.5392 67.0522C21.2228 67.2367 21.0084 67.4671 20.896 67.7434C20.698 68.2086 20.8793 69.1051 21.4397 70.4331C21.9318 71.5992 22.3703 72.2918 22.7554 72.5109C23.4395 72.8963 24.2296 72.8999 25.1258 72.5217C26.0219 72.1435 26.6642 71.7516 27.0527 71.346C27.4474 70.925 27.7244 70.4965 27.8838 70.0603ZM39.9709 57.2894C39.9952 58.4621 40.1891 59.5696 40.5526 60.6118C40.9116 61.6432 41.2275 62.5275 41.5004 63.2645C41.7733 64.0016 42.063 64.7633 42.3694 65.5498C43.1025 67.3773 43.7835 69.036 44.4123 70.526C46.9912 76.6369 48.799 80.2877 49.8357 81.4783C50.0115 81.6839 50.2089 81.8804 50.4279 82.0678L44.8406 84.4258C44.8655 83.5503 44.785 82.8021 44.5992 82.1809C44.4134 81.5597 44.1743 80.8275 43.882 79.9842C43.2962 78.2344 42.5363 76.2529 41.6022 74.0396C40.6681 71.8262 40.0248 70.317 39.6723 69.5118C39.3152 68.6958 38.9619 67.9037 38.6122 67.1354C36.9373 63.3777 35.6945 61.0657 34.8838 60.1995L34.3837 59.6474L39.9709 57.2894ZM48.1818 53.8243C48.2489 54.4956 48.394 55.0957 48.6173 55.6248C48.9955 56.5209 49.6988 57.7504 50.7273 59.3134C54.8375 65.3758 57.2171 68.8744 57.8659 69.8089C59.2124 71.7337 60.0299 72.9023 60.3184 73.3148C60.6132 73.7119 60.8904 74.0973 61.1499 74.4712C62.1511 71.2376 62.1647 67.3969 61.1907 62.9491C60.8336 61.3191 60.3725 59.8347 59.8075 58.4959C59.2425 57.1571 58.7781 56.132 58.4142 55.4206C58.0504 54.7092 57.6762 54.0786 57.2914 53.5286C56.522 52.4287 55.6857 51.5924 54.7825 51.0196L60.4346 48.6343C60.4813 49.3778 60.6359 50.0757 60.8985 50.7281C61.1611 51.3804 61.5564 52.3774 62.0844 53.7191C62.6079 55.05 63.1035 56.6915 63.5713 58.6437C64.039 60.5959 64.3491 62.3857 64.5017 64.013C64.6542 65.6404 64.6853 67.1154 64.5948 68.4383C64.5044 69.7611 64.357 70.949 64.1527 72.0019C63.9483 73.0549 63.7208 73.9776 63.4702 74.7702L62.8495 76.8257L57.748 78.9786C57.7369 78.5 57.6492 78.0663 57.4852 77.6776C57.2164 77.0406 56.7359 76.1432 56.0437 74.9852C48.9941 63.4346 44.4894 57.176 42.5298 56.2096L48.1818 53.8243ZM83.5119 61.0463C83.972 61.3228 84.3616 61.8389 84.6805 62.5947C84.9995 63.3504 85.2222 63.9687 85.3488 64.4495C85.4708 64.9195 85.5391 65.3677 85.5537 65.794C85.5761 66.7513 85.3228 67.3415 84.7937 67.5648L71.6758 73.1008C72.3203 72.3073 72.6909 71.6485 72.7877 71.1243C72.9717 70.1436 72.8153 69.0648 72.3187 67.8879C71.0913 65.0098 69.9855 62.4047 69.0013 60.0726L65.4063 51.554C64.7274 49.9453 63.9816 48.8863 63.1689 48.3771C62.8652 48.2 62.5283 48.0496 62.1581 47.926L74.3368 42.7864C75.1803 42.7357 76.0651 43.4307 76.9911 44.8715C77.249 45.2715 77.4644 45.6766 77.6376 46.0869C77.993 46.929 78.1513 47.6508 78.1126 48.2523L76.4999 46.8723C75.4339 45.9739 74.2737 45.5604 73.0192 45.632C72.3234 45.6712 71.5977 45.8503 70.8419 46.1692C70.0861 46.4882 69.5577 46.743 69.2566 46.9337C68.9509 47.1135 68.7504 47.3317 68.6551 47.5882C68.5066 48.0197 68.6191 48.6782 68.9927 49.5635C69.3618 50.438 69.6408 51.0389 69.8298 51.3662C70.0142 51.6827 70.233 51.9147 70.4861 52.0623C70.9985 52.3421 71.7945 52.2542 72.8742 51.7986L77.9594 49.6525C77.9754 50.3835 77.9084 50.9332 77.7587 51.3017C77.4591 52.0387 76.8667 52.5939 75.9814 52.9676C75.6359 53.1134 75.2907 53.2146 74.9457 53.2711C74.3034 53.3768 73.7609 53.5231 73.3183 53.7099C72.8756 53.8967 72.5268 54.0948 72.2717 54.3042C72.0229 54.4982 71.8539 54.7158 71.7649 54.9569C71.6118 55.3777 71.7015 55.9821 72.0341 56.7703L75.2942 64.4953C76.1508 66.5251 76.7722 67.6811 77.1584 67.9633C77.5446 68.2455 77.9156 68.356 78.2714 68.2949C78.6227 68.223 79.1762 68.0275 79.932 67.7086C80.6877 67.3897 81.3277 66.9924 81.852 66.5167C82.3763 66.0411 82.7616 65.5223 83.0078 64.9605C83.2649 64.3941 83.4167 63.7894 83.4634 63.1465C83.5054 62.4928 83.5216 61.7927 83.5119 61.0463ZM89.5402 47.4363C88.2878 47.9648 87.9737 48.9687 88.5979 50.4478C91.1859 56.5803 92.8126 60.1485 93.478 61.1524C93.8747 61.7609 94.2331 62.1884 94.5534 62.4348L95.4015 63.0881L89.6522 65.5144C89.6514 64.548 89.5618 63.7782 89.3835 63.2047C89.2159 62.6268 89.0215 62.0156 88.8004 61.3711C88.3491 60.0607 87.6701 58.3312 86.7634 56.1826C85.6653 53.5806 84.6197 51.2236 83.6266 49.1115L81.569 44.7331C81.0519 43.6284 80.6244 42.8867 80.2864 42.5078C79.7527 41.9063 79.0975 41.4387 78.3207 41.1051L86.8879 37.4896C89.5007 36.3869 91.4995 35.8487 92.8842 35.8748C94.3429 35.8952 95.3478 36.5586 95.8992 37.865C96.3822 39.0095 96.409 40.2637 95.9799 41.6278C95.5728 42.8934 94.8376 44.075 93.7744 45.1724C95.686 49.25 98.666 52.6795 102.714 55.461C104.459 56.6709 106.07 57.5046 107.548 57.9621L101.475 60.5251C99.806 59.5249 97.5918 57.0059 94.8321 52.9683C93.8828 51.5627 93.1454 50.373 92.6199 49.3991C92.1052 48.4207 91.7722 47.8426 91.6209 47.6648C91.4758 47.4716 91.3111 47.3376 91.1269 47.2627C90.7493 47.0914 90.2204 47.1492 89.5402 47.4363ZM92.0485 42.9816C92.2141 42.5301 92.2788 42.0958 92.2427 41.6786C92.2173 41.2568 92.134 40.8786 91.9928 40.5439C91.847 40.1984 91.6548 39.8788 91.4164 39.5851C91.1842 39.2761 90.8785 39.0489 90.4992 38.9037C89.6594 38.5713 88.4999 38.7172 87.0207 39.3414C86.4701 39.5738 86.0312 39.7845 85.7039 39.9735C85.3874 40.1579 85.173 40.3883 85.0607 40.6647C84.8627 41.1298 85.0439 42.0264 85.6043 43.3544C86.0964 44.5204 86.535 45.213 86.92 45.4321C87.6042 45.8175 88.3943 45.8211 89.2904 45.443C90.1865 45.0648 90.8289 44.6729 91.2173 44.2673C91.6121 43.8463 91.8891 43.4177 92.0485 42.9816Z" fill="white"/>
</g>
<g filter="url(#filter2_d_829_62)">
<path d="M74.7272 82.9427C74.2039 82.4258 73.7622 81.7409 73.4022 80.888C73.0423 80.0351 72.7808 79.325 72.6177 78.7578C72.4501 78.1799 72.3269 77.6468 72.2481 77.1585C72.088 76.0559 72.1969 75.4248 72.5748 75.2654L86.8426 69.2441C87.4688 68.9798 88.2817 69.7306 89.2814 71.4965C89.5541 71.992 89.8066 72.515 90.039 73.0656C90.5857 74.3612 90.8532 75.3868 90.8413 76.1423C88.6962 73.6514 86.7132 72.3132 84.8924 72.1277C84.4756 72.0746 84.1053 72.1164 83.7814 72.2531C83.4575 72.3898 83.2403 72.5832 83.1296 72.8334C83.0144 73.0728 82.9749 73.4011 83.0111 73.8183C83.0901 74.5482 83.321 75.3665 83.7037 76.2735L86.2667 82.3466L88.3743 87.2954L90.3563 91.992C90.8029 93.0501 91.2682 93.7759 91.7522 94.1694C92.2425 94.5476 92.6827 94.807 93.0728 94.9476C93.4737 95.0837 93.9163 95.1831 94.4006 95.2458L86.125 98.7383C86.6335 97.7733 86.9092 97.04 86.952 96.5386C87.0371 95.6251 86.8655 94.6608 86.4372 93.646L80.2792 79.0542C79.5638 77.3592 79.0388 76.296 78.7042 75.8649C78.3651 75.4229 78.0696 75.1597 77.8177 75.0752C77.5612 74.9799 77.271 75.0006 76.9471 75.1373C76.6232 75.274 76.335 75.5101 76.0823 75.8457C75.825 76.1705 75.6005 76.5578 75.4088 77.0076C75.2232 77.442 75.0713 77.9259 74.9529 78.4592C74.8408 78.9771 74.7571 79.5022 74.7018 80.0343C74.5975 81.0831 74.606 82.0526 74.7272 82.9427ZM109.077 87.5257C111.15 86.6509 111.423 83.5595 109.895 78.2514C109.38 76.459 108.635 74.4075 107.66 72.097C105.245 66.3748 102.586 64.1265 99.6814 65.3522C96.7771 66.5779 96.5324 70.0518 98.9473 75.7741C101.795 82.522 104.462 86.4145 106.947 87.4516C107.719 87.7744 108.429 87.7991 109.077 87.5257ZM109.728 89.1589C106.856 90.3709 104.122 89.9349 101.525 87.8508C99.0237 85.8411 96.75 82.4124 94.7042 77.5647C92.5763 72.5227 92.7861 68.6946 95.3334 66.0805C96.2325 65.1669 97.454 64.3843 98.9979 63.7327C103.425 61.8646 106.958 62.6882 109.599 66.2035C110.456 67.3301 111.304 68.8866 112.142 70.8732C112.981 72.8598 113.626 74.8707 114.078 76.9059C114.525 78.9303 114.671 80.7515 114.514 82.3694C114.195 85.6837 112.6 87.9469 109.728 89.1589ZM129.096 79.0776C131.168 78.2027 131.441 75.1113 129.913 69.8033C129.399 68.0109 128.654 65.9594 127.679 63.6489C125.264 57.9267 122.604 55.6784 119.7 56.9041C116.795 58.1297 116.551 61.6037 118.966 67.3259C121.813 74.0739 124.48 77.9664 126.966 79.0034C127.738 79.3262 128.448 79.351 129.096 79.0776ZM129.747 80.7107C126.875 81.9227 124.14 81.4867 121.544 79.4027C119.042 77.393 116.768 73.9643 114.723 69.1166C112.595 64.0746 112.804 60.2465 115.352 57.6324C116.251 56.7187 117.472 55.9361 119.016 55.2846C123.443 53.4164 126.977 54.2401 129.618 57.7554C130.475 58.8819 131.322 60.4385 132.161 62.4251C132.999 64.4117 133.644 66.4226 134.096 68.4578C134.544 70.4822 134.689 72.3034 134.532 73.9213C134.214 77.2356 132.619 79.4987 129.747 80.7107ZM133.484 58.1462C132.961 57.6293 132.519 56.9444 132.159 56.0915C131.799 55.2385 131.538 54.5285 131.375 53.9613C131.207 53.3833 131.084 52.8502 131.005 52.362C130.845 51.2594 130.954 50.6283 131.332 50.4688L145.599 44.4475C146.226 44.1833 147.039 44.9341 148.038 46.7C148.311 47.1954 148.563 47.7185 148.796 48.2691C149.343 49.5647 149.61 50.5903 149.598 51.3457C147.453 48.8549 145.47 47.5167 143.649 47.3311C143.232 47.2781 142.862 47.3199 142.538 47.4566C142.214 47.5932 141.997 47.7867 141.886 48.0369C141.771 48.2763 141.732 48.6046 141.768 49.0218C141.847 49.7516 142.078 50.57 142.461 51.4769L145.024 57.5501L147.131 62.4989L149.113 67.1955C149.56 68.2535 150.025 68.9793 150.509 69.3729C150.999 69.751 151.44 70.0105 151.83 70.1511C152.23 70.2872 152.673 70.3866 153.157 70.4493L144.882 73.9418C145.39 72.9767 145.666 72.2435 145.709 71.7421C145.794 70.8285 145.622 69.8643 145.194 68.8494L139.036 54.2577C138.321 52.5626 137.796 51.4995 137.461 51.0683C137.122 50.6264 136.826 50.3631 136.574 50.2787C136.318 50.1834 136.028 50.2041 135.704 50.3408C135.38 50.4774 135.092 50.7136 134.839 51.0492C134.582 51.374 134.357 51.7613 134.166 52.2111C133.98 52.6455 133.828 53.1294 133.71 53.6627C133.598 54.1806 133.514 54.7056 133.459 55.2377C133.354 56.2866 133.363 57.2561 133.484 58.1462ZM167.359 53.1038L165.47 48.6732C165.215 48.0686 164.944 47.6994 164.659 47.5654C164.134 47.3163 163.391 47.3945 162.43 47.8L159.872 48.8799C158.533 49.4449 157.958 50.1326 158.147 50.9431C158.206 51.1727 158.288 51.4116 158.393 51.66L160.427 56.5253C162.195 60.7144 163.518 63.2469 164.396 64.1227C164.742 64.4601 165.201 64.7942 165.773 65.1252L159.7 67.6881C159.699 66.7218 159.61 65.9519 159.431 65.3785C159.264 64.8005 159.042 64.093 158.765 63.2559C158.168 61.5107 157.41 59.5476 156.489 57.3667C155.569 55.1858 154.93 53.6873 154.573 52.8713C154.211 52.0445 153.859 51.2393 153.515 50.4557C152.059 47.2162 151.13 45.2999 150.727 44.7068C150.319 44.1029 150.024 43.7058 149.842 43.5155L149.243 42.9098L155.316 40.3468C154.904 41.5386 154.964 42.8869 155.497 44.3917C155.652 44.848 155.831 45.3191 156.036 45.8049C156.241 46.2908 156.446 46.6558 156.651 46.9001C156.862 47.129 157.103 47.2627 157.374 47.3011C157.747 47.3724 158.474 47.1803 159.553 46.7246L161.092 46.0753C162.193 45.6106 162.839 45.2426 163.03 44.9713C163.343 44.5083 163.302 43.8072 162.906 42.8678C161.935 40.5681 160.798 39.14 159.495 38.5834L165.568 36.0205C165.545 36.8697 165.623 37.6126 165.802 38.2491C165.993 38.8811 166.19 39.4846 166.395 40.0597C166.595 40.624 166.834 41.2801 167.111 42.0279C167.388 42.7758 167.683 43.5483 167.994 44.3456C168.736 46.1947 169.421 47.8642 170.05 49.3542C172.606 55.4111 174.398 59.0241 175.426 60.1931C175.597 60.3879 175.797 60.5898 176.025 60.7988L169.952 63.3618C170.186 62.4106 170.254 61.6508 170.154 61.0825C170.049 60.5033 169.879 59.8438 169.643 59.1039C169.205 57.6735 168.443 55.6734 167.359 53.1038Z" fill="white"/>
</g>
</g>
<g filter="url(#filter3_d_829_62)">
<path d="M176.042 46.0087L176.413 46.9183L176.582 46.9596C178.282 47.111 181.477 46.6218 183.179 45.9271C185.036 45.1688 185.42 44.3886 186.116 42.9722C186.214 42.771 186.316 42.5656 186.428 42.3459C186.194 42.2674 185.978 42.191 185.766 42.1173C184.278 41.5924 183.458 41.3036 181.601 42.0619C179.993 42.7184 177.271 44.5403 176.131 45.8648L176.042 46.0087Z" fill="white"/>
<path d="M176.139 45.0019L177.781 42.3414C178.131 41.776 178.189 41.0704 177.937 40.455C177.845 40.2282 177.714 40.0216 177.549 39.84C176.786 39.0016 175.575 38.7764 174.573 39.2556L174.822 39.4721C175.333 39.9167 175.738 40.4831 175.995 41.1104C176.255 41.7479 176.361 42.4468 176.301 43.1326L176.139 45.0019Z" fill="white"/>
<path d="M181.84 50.349C181.832 50.1036 181.779 49.8642 181.687 49.6381C181.436 49.0228 180.901 48.5602 180.256 48.4L177.22 47.649L178.645 48.8708C179.167 49.319 179.581 49.893 179.841 50.5298C180.097 51.1571 180.204 51.8452 180.15 52.5203L180.124 52.8495C181.174 52.49 181.882 51.4813 181.84 50.349Z" fill="white"/>
</g>
<g filter="url(#filter4_d_829_62)">
<path d="M14.9541 82.6839L14.5828 81.7743L14.4142 81.733C12.7139 81.5816 9.51906 82.0708 7.81721 82.7656C5.95996 83.5238 5.57632 84.304 4.88059 85.7205C4.78228 85.9216 4.68019 86.127 4.56819 86.3467C4.80193 86.4252 5.01816 86.5016 5.2296 86.5754C6.71785 87.1002 7.53798 87.389 9.39518 86.6308C11.0034 85.9742 13.7255 84.1524 14.8647 82.8278L14.9541 82.6839Z" fill="white"/>
<path d="M14.857 83.6907L13.2147 86.3513C12.8655 86.9167 12.8075 87.6222 13.0587 88.2376C13.1513 88.4644 13.2819 88.671 13.4467 88.8526C14.2099 89.6911 15.4214 89.9163 16.423 89.437L16.1737 89.2206C15.6628 88.776 15.2576 88.2095 15.0015 87.5823C14.7412 86.9447 14.6354 86.2459 14.695 85.56L14.857 83.6907Z" fill="white"/>
<path d="M9.1556 78.3436C9.16418 78.589 9.21662 78.8285 9.30889 79.0545C9.56012 79.6699 10.095 80.1324 10.7405 80.2927L13.7756 81.0436L12.3516 79.8218C11.8291 79.3736 11.4153 78.7996 11.1553 78.1628C10.8992 77.5356 10.7922 76.8474 10.8459 76.1723L10.8726 75.8431C9.8221 76.2026 9.11441 77.2113 9.1556 78.3436Z" fill="white"/>
</g>
<defs>
<filter id="filter0_d_829_62" x="10.1492" y="31.1675" width="170.012" height="75.7537" filterUnits="userSpaceOnUse" color-interpolation-filters="sRGB">
<feFlood flood-opacity="0" result="BackgroundImageFix"/>
<feColorMatrix in="SourceAlpha" type="matrix" values="0 0 0 0 0 0 0 0 0 0 0 0 0 0 0 0 0 0 127 0" result="hardAlpha"/>
<feOffset dy="2"/>
<feGaussianBlur stdDeviation="2"/>
<feComposite in2="hardAlpha" operator="out"/>
<feColorMatrix type="matrix" values="0 0 0 0 0 0 0 0 0 0 0 0 0 0 0 0 0 0 0.25 0"/>
<feBlend mode="normal" in2="BackgroundImageFix" result="effect1_dropShadow_829_62"/>
<feBlend mode="normal" in="SourceGraphic" in2="effect1_dropShadow_829_62" result="shape"/>
</filter>
<filter id="filter1_d_829_62" x="10.1492" y="31.1675" width="101.398" height="67.7947" filterUnits="userSpaceOnUse" color-interpolation-filters="sRGB">
<feFlood flood-opacity="0" result="BackgroundImageFix"/>
<feColorMatrix in="SourceAlpha" type="matrix" values="0 0 0 0 0 0 0 0 0 0 0 0 0 0 0 0 0 0 127 0" result="hardAlpha"/>
<feOffset dy="2"/>
<feGaussianBlur stdDeviation="2"/>
<feComposite in2="hardAlpha" operator="out"/>
<feColorMatrix type="matrix" values="0 0 0 0 0 0 0 0 0 0 0 0 0 0 0 0 0 0 0.25 0"/>
<feBlend mode="normal" in2="BackgroundImageFix" result="effect1_dropShadow_829_62"/>
<feBlend mode="normal" in="SourceGraphic" in2="effect1_dropShadow_829_62" result="shape"/>
</filter>
<filter id="filter2_d_829_62" x="67.1262" y="33.6965" width="113.035" height="73.2246" filterUnits="userSpaceOnUse" color-interpolation-filters="sRGB">
<feFlood flood-opacity="0" result="BackgroundImageFix"/>
<feColorMatrix in="SourceAlpha" type="matrix" values="0 0 0 0 0 0 0 0 0 0 0 0 0 0 0 0 0 0 127 0" result="hardAlpha"/>
<feOffset dy="2"/>
<feGaussianBlur stdDeviation="2"/>
<feComposite in2="hardAlpha" operator="out"/>
<feColorMatrix type="matrix" values="0 0 0 0 0 0 0 0 0 0 0 0 0 0 0 0 0 0 0.25 0"/>
<feBlend mode="normal" in2="BackgroundImageFix" result="effect1_dropShadow_829_62"/>
<feBlend mode="normal" in="SourceGraphic" in2="effect1_dropShadow_829_62" result="shape"/>
</filter>
<filter id="filter3_d_829_62" x="170.573" y="37.0073" width="19.855" height="21.8423" filterUnits="userSpaceOnUse" color-interpolation-filters="sRGB">
<feFlood flood-opacity="0" result="BackgroundImageFix"/>
<feColorMatrix in="SourceAlpha" type="matrix" values="0 0 0 0 0 0 0 0 0 0 0 0 0 0 0 0 0 0 127 0" result="hardAlpha"/>
<feOffset dy="2"/>
<feGaussianBlur stdDeviation="2"/>
<feComposite in2="hardAlpha" operator="out"/>
<feColorMatrix type="matrix" values="0 0 0 0 0 0 0 0 0 0 0 0 0 0 0 0 0 0 0.25 0"/>
<feBlend mode="normal" in2="BackgroundImageFix" result="effect1_dropShadow_829_62"/>
<feBlend mode="normal" in="SourceGraphic" in2="effect1_dropShadow_829_62" result="shape"/>
</filter>
<filter id="filter4_d_829_62" x="0.568115" y="73.843" width="19.855" height="21.8423" filterUnits="userSpaceOnUse" color-interpolation-filters="sRGB">
<feFlood flood-opacity="0" result="BackgroundImageFix"/>
<feColorMatrix in="SourceAlpha" type="matrix" values="0 0 0 0 0 0 0 0 0 0 0 0 0 0 0 0 0 0 127 0" result="hardAlpha"/>
<feOffset dy="2"/>
<feGaussianBlur stdDeviation="2"/>
<feComposite in2="hardAlpha" operator="out"/>
<feColorMatrix type="matrix" values="0 0 0 0 0 0 0 0 0 0 0 0 0 0 0 0 0 0 0.25 0"/>
<feBlend mode="normal" in2="BackgroundImageFix" result="effect1_dropShadow_829_62"/>
<feBlend mode="normal" in="SourceGraphic" in2="effect1_dropShadow_829_62" result="shape"/>
</filter>
</defs>
</svg>
